<svg width="122" height="48" viewBox="0 0 122 48" fill="none" xmlns="http://www.w3.org/2000/svg">
<path d="M97.358 47.6419H24.642C21.5366 47.6429 18.4615 47.0322 15.5922 45.8445C12.7229 44.6569 10.1157 42.9156 7.91944 40.7202C5.72323 38.5247 3.98106 35.9181 2.79244 33.0492C1.60382 30.1803 0.992035 27.1054 0.992035 24C0.992035 20.8946 1.60382 17.8197 2.79244 14.9508C3.98106 12.0819 5.72323 9.47526 7.91944 7.2798C10.1157 5.08435 12.7229 3.34307 15.5922 2.15543C18.4615 0.967792 21.5366 0.357062 24.642 0.358125H97.358C100.463 0.357062 103.539 0.967792 106.408 2.15543C109.277 3.34307 111.884 5.08435 114.081 7.2798C116.277 9.47526 118.019 12.0819 119.208 14.9508C120.396 17.8197 121.008 20.8946 121.008 24C121.008 27.1054 120.396 30.1803 119.208 33.0492C118.019 35.9181 116.277 38.5247 114.081 40.7202C111.884 42.9156 109.277 44.6569 106.408 45.8445C103.539 47.0322 100.463 47.6429 97.358 47.6419ZM24.642 1.18964C21.6458 1.1886 18.6788 1.77784 15.9104 2.9237C13.142 4.06956 10.6265 5.74959 8.50751 7.86783C6.38853 9.98607 4.70762 12.501 3.56079 15.269C2.41397 18.037 1.8237 21.0038 1.8237 24C1.8237 26.9962 2.41397 29.963 3.56079 32.731C4.70762 35.499 6.38853 38.0139 8.50751 40.1321C10.6265 42.2504 13.142 43.9304 15.9104 45.0763C18.6788 46.2221 21.6458 46.8114 24.642 46.8103H97.358C100.354 46.8114 103.321 46.2221 106.09 45.0763C108.858 43.9304 111.374 42.2504 113.493 40.1321C115.611 38.0139 117.292 35.499 118.439 32.731C119.586 29.963 120.176 26.9962 120.176 24C120.176 21.0038 119.586 18.037 118.439 15.269C117.292 12.501 115.611 9.98607 113.493 7.86783C111.374 5.74959 108.858 4.06956 106.09 2.9237C103.321 1.77784 100.354 1.1886 97.358 1.18964H24.642Z" fill="#30373F"/>
<path d="M97.3483 44.5615H24.6517C21.9509 44.5625 19.2764 44.0314 16.7809 42.9986C14.2854 41.9657 12.0178 40.4513 10.1077 38.5419C8.19763 36.6325 6.68241 34.3655 5.64863 31.8704C4.61485 29.3753 4.08276 26.7009 4.08276 24.0001C4.08276 21.2993 4.61485 18.625 5.64863 16.1299C6.68241 13.6347 8.19763 11.3677 10.1077 9.45832C12.0178 7.54892 14.2854 6.03453 16.7809 5.00167C19.2764 3.96881 21.9509 3.4377 24.6517 3.43869H97.3483C102.801 3.43869 108.031 5.60498 111.887 9.46099C115.743 13.317 117.91 18.5469 117.91 24.0001C117.91 29.4533 115.743 34.6832 111.887 38.5392C108.031 42.3953 102.801 44.5615 97.3483 44.5615ZM24.6517 3.71586C21.9873 3.71488 19.3489 4.23882 16.887 5.25776C14.4251 6.2767 12.1881 7.77067 10.3038 9.65433C8.4194 11.538 6.9246 13.7745 5.90475 16.2359C4.8849 18.6974 4.35999 21.3357 4.35999 24.0001C4.35999 26.6645 4.8849 29.3028 5.90475 31.7643C6.9246 34.2258 8.4194 36.4622 10.3038 38.3459C12.1881 40.2296 14.4251 41.7235 16.887 42.7425C19.3489 43.7614 21.9873 44.2854 24.6517 44.2844H97.3483C100.013 44.2854 102.651 43.7614 105.113 42.7425C107.575 41.7235 109.812 40.2296 111.696 38.3459C113.581 36.4622 115.075 34.2258 116.095 31.7643C117.115 29.3028 117.64 26.6645 117.64 24.0001C117.64 21.3357 117.115 18.6974 116.095 16.2359C115.075 13.7745 113.581 11.538 111.696 9.65433C109.812 7.77067 107.575 6.2767 105.113 5.25776C102.651 4.23882 100.013 3.71488 97.3483 3.71586H24.6517Z" fill="#30373F"/>
<path d="M28.2573 18.9808C31.2516 18.9808 33.436 20.7478 33.436 22.9813C33.436 24.994 31.669 26.6387 29.141 26.9331V29.7556C30.4662 29.7312 31.7425 29.6821 32.9942 29.6082C34.2214 29.5347 34.909 29.3873 35.4978 29.0193C36.2728 29.0631 37.0438 29.1615 37.8049 29.3137C38.4185 29.4364 38.7377 29.7312 38.7377 30.0748C38.7377 30.5901 38.4185 30.8354 37.8049 30.8354C37.4857 30.8354 36.7251 30.7863 35.6696 30.6884C35.2525 30.6636 34.1723 30.6393 32.7485 30.6393C29.5581 30.6884 26.3182 30.7863 23.0783 30.9581C22.394 30.9953 21.7288 31.1975 21.1395 31.5473C20.2558 31.4738 18.9551 30.9093 18.2432 30.4184C18.1488 30.3544 18.0693 30.2709 18.01 30.1735C17.9507 30.0761 17.9131 29.9671 17.8996 29.8539C17.8996 29.6082 18.1697 29.5347 18.685 29.6082C19.7476 29.7841 20.8236 29.8664 21.9006 29.8539C23.8885 29.8539 25.7537 29.8291 27.5207 29.8047V26.9575C24.8944 26.6875 23.0783 25.0431 23.0783 22.9813C23.0783 20.7478 25.2627 18.9808 28.2573 18.9808ZM20.2558 17.5817C20.1681 17.5098 20.0965 17.4202 20.0458 17.3187C19.9951 17.2173 19.9663 17.1062 19.9614 16.9929C19.9614 16.772 20.1819 16.6489 20.6486 16.7228C21.5872 16.8983 22.5409 16.9804 23.4958 16.9681C25.6798 16.9681 29.2881 16.919 30.8589 16.7963C31.9391 16.6981 32.5527 16.5754 33.0924 16.2075C33.8097 16.2606 34.5229 16.359 35.2278 16.5019C35.7922 16.6246 36.0623 16.919 36.0623 17.2626C36.0623 17.7783 35.7922 18.0236 35.2278 18.0236C34.9329 18.0236 33.927 17.9253 33.2151 17.8762C32.6262 17.827 31.6443 17.827 30.6379 17.827C29.141 17.827 26.1216 17.901 24.5264 18.0727C23.9162 18.1177 23.3262 18.3115 22.8082 18.6372C21.8865 18.4902 21.0122 18.1287 20.2558 17.5817ZM30.0735 15.2499C29.3616 15.2499 26.9566 15.2499 26.1955 15.3238C25.5523 15.0472 24.9751 14.6372 24.5021 14.1209C24.2568 13.8265 24.4286 13.5073 25.0174 13.6303C25.2875 13.6791 25.9255 13.7773 26.3182 13.8265C27.0301 13.9247 29.018 13.9247 30.1226 13.9247C30.8097 13.9247 31.1777 14.0965 31.1777 14.5384C31.1777 14.9311 30.6379 15.2499 30.0735 15.2499ZM28.2573 25.7794C29.9264 25.7794 31.7178 24.6996 31.7178 22.9813C31.7178 21.2635 29.9264 20.1833 28.2573 20.1833C26.5391 20.1833 24.7965 21.2635 24.7965 22.9813C24.7965 24.7239 26.5391 25.7794 28.2573 25.7794Z" fill="#30373F"/>
<path d="M43.7698 23.4479C43.761 23.5264 43.7704 23.6057 43.7973 23.6799C43.8242 23.7541 43.8678 23.8211 43.9248 23.8757C43.9817 23.9303 44.0505 23.971 44.1257 23.9947C44.201 24.0184 44.2807 24.0245 44.3586 24.0124C46.4591 23.9718 48.5526 23.7583 50.6179 23.374C51.2555 23.227 51.4521 24.0368 50.7158 24.3069C48.4905 25.0667 46.1681 25.5047 43.8189 25.6076C42.3707 25.6076 42.0519 24.7487 42.0519 23.2762V18.318C41.7819 17.8518 41.1191 17.4835 40.5299 17.3117C39.794 17.0908 39.818 16.4284 40.5546 16.4284C41.217 16.4284 42.6408 16.6002 43.6228 16.6002C44.3938 16.629 45.1659 16.5879 45.9294 16.4771C46.3375 16.3937 46.7178 16.208 47.0344 15.9374C47.6143 15.8881 48.1972 15.8881 48.777 15.9374C49.3411 15.9618 49.636 16.1827 49.636 16.6002C49.636 17.2138 49.145 17.3608 48.3104 17.3856C46.5678 17.4591 45.6106 17.4591 43.7945 17.5574C43.7698 17.8518 43.7698 17.9744 43.7698 17.9992V20.2815C44.2221 20.3014 44.6753 20.2685 45.12 20.1833C45.5591 20.1083 45.9772 19.9411 46.3469 19.6927C46.8612 19.6479 47.3779 19.6396 47.8934 19.6679C48.4574 19.6927 48.6788 19.938 48.6788 20.3063C48.6788 20.9199 48.2617 21.0426 47.4267 21.0669C45.979 21.1161 44.997 21.1652 43.7698 21.2387L43.7698 23.4479ZM49.4886 33.83C51.3552 33.8818 53.2233 33.8326 55.0847 33.6826C55.6 33.6335 56.3363 33.4373 56.7046 33.0938C57.3354 33.0568 57.9683 33.0814 58.5943 33.1673C59.0852 33.2164 59.6497 33.4373 59.6497 33.9279C59.6497 34.4437 59.2079 34.7133 58.3981 34.689C56.7047 34.6398 52.0657 34.7872 49.3659 34.7872C47.9916 34.8851 47.2306 34.2471 47.2306 32.8729V31.5965C47.0097 31.032 46.4208 30.8354 45.8559 30.6884C45.1201 30.4919 45.1688 29.9274 45.9294 29.8782C46.6661 29.8291 48.2857 30.0009 49.145 30.0257C51.4033 30.0748 54.6185 29.9274 55.9436 29.8291C56.0175 29.1667 56.0663 28.013 56.0663 27.375C54.2993 27.2767 51.5256 27.4729 49.783 27.6203C49.0692 27.6762 48.3711 27.8591 47.7216 28.1604C46.9272 27.9103 46.1804 27.5285 45.5124 27.031C45.0705 26.6387 45.4636 26.2948 45.8559 26.3687C46.249 26.4422 47.3285 26.5157 47.7216 26.5405C50.1761 26.6387 53.9314 26.4666 55.2073 26.3931C56.1398 26.3439 57.2448 26.2704 57.5883 26.2213C58.1281 26.1478 58.3242 26.3931 58.3242 26.614C58.2762 26.9306 58.1769 27.2373 58.0302 27.522C57.8336 28.2831 57.5636 29.142 57.3427 29.7556C57.8824 29.6821 58.5455 29.7804 58.496 30.3692C58.472 30.8111 58.0054 30.9094 57.3918 30.8602C54.0536 30.8355 51.035 30.9337 48.9976 31.032C48.9799 31.2032 48.9718 31.3752 48.9732 31.5473V33.1673C48.9732 33.5844 49.145 33.83 49.4886 33.83ZM54.6429 15.2011C54.5393 15.7847 54.4819 16.3755 54.4711 16.9681V21.1408C54.4711 22.1468 54.545 25.2884 53.5383 25.2884C53.1699 25.2884 52.9003 24.7487 52.9003 23.6441V20.3063C52.6609 20.333 52.4233 20.374 52.1888 20.429C51.792 20.5051 51.4104 20.646 51.0594 20.846C50.3957 20.7223 49.7674 20.4542 49.2189 20.0606C48.7771 19.6679 49.0711 19.3 49.4886 19.3735C49.783 19.4226 50.8137 19.4226 51.3051 19.4226C51.8381 19.4174 52.3706 19.3846 52.9003 19.3243V16.4036C52.4354 15.8899 51.8424 15.5087 51.182 15.299C50.4949 15.0537 50.5684 14.4645 51.2803 14.4645C51.8448 14.4645 53.9553 14.6854 54.6429 15.2011ZM58.4473 13.8513C58.3439 14.4349 58.2865 15.0257 58.2755 15.6182V21.3861C58.2755 22.3925 58.3242 25.5341 57.3183 25.5341C56.95 25.5341 56.7047 24.994 56.7047 23.8894V15.0537C56.2061 14.5224 55.5814 14.1256 54.8886 13.9C54.1767 13.6547 54.2502 13.0658 54.9864 13.0658C55.5757 13.0658 57.7601 13.3355 58.4473 13.8513Z" fill="#30373F"/>
<path d="M66.3756 17.9253C68.9772 17.9253 70.8915 19.6188 71.2847 21.8771C72.0944 21.9015 73.0025 21.8771 73.9597 21.8524V16.9929C73.9597 16.0601 73.0516 15.6917 72.1188 15.3729C71.8248 15.2499 71.677 15.1272 71.677 14.9802C71.677 14.7837 71.8983 14.5384 72.3645 14.5384C72.8059 14.5384 75.2361 14.8819 75.6288 15.0781L75.5305 16.3793V27.7677C75.5305 29.0193 75.5553 33.4617 74.4998 33.4617C74.1315 33.4617 73.9597 32.431 73.9597 30.4183V22.8095C73.7144 22.8343 73.4935 22.8835 73.3217 22.9078C72.9889 22.9794 72.6726 23.1126 72.3889 23.3005C72.0453 23.2331 71.7086 23.1346 71.3829 23.0061C71.2599 25.6076 69.2472 27.5959 66.3756 27.5959C63.381 27.5959 61.3688 25.485 61.3688 22.7852C61.3688 20.0854 63.381 17.9253 66.3756 17.9253ZM66.4004 26.3195C68.2413 26.3195 69.6643 24.8957 69.6643 22.6869C69.6643 20.5024 68.2413 19.0543 66.4004 19.0543C64.5595 19.0543 63.1605 20.5025 63.1605 22.6869C63.1605 24.8957 64.5595 26.3195 66.4004 26.3195ZM79.6541 14.9554V29.2402C79.6541 30.5166 79.6789 34.9342 78.5986 34.9342C78.2303 34.9342 78.0585 33.9035 78.0585 31.8909V15.4221C78.0585 14.8328 77.4449 14.3666 76.2424 13.9C75.9723 13.7773 75.7758 13.6547 75.7758 13.5073C75.7758 13.3355 76.0215 13.0902 76.5124 13.0902C76.9543 13.0902 79.3349 13.4094 79.7524 13.6303L79.6541 14.9554Z" fill="#30373F"/>
<path d="M91.313 15.6917C91.0103 16.7963 90.5735 17.8597 90.0122 18.8581L91.4113 19.9871C92.0497 20.5025 92.6629 20.9443 93.3748 20.9199C93.9393 21.4105 94.9948 22.4416 95.2401 23.1531C95.5592 23.9633 94.823 24.6261 94.0128 23.9633L89.4477 19.8153C88.0979 21.8524 86.2322 23.5215 83.9499 24.9696C83.2623 25.4115 82.7965 24.7978 83.3854 24.3069C86.0604 22.0733 88.1961 19.3243 89.1038 16.4284C88.9815 16.0353 88.4662 15.5939 87.8769 15.299C87.1407 14.9311 87.6069 14.4892 88.1961 14.5384C89.3251 14.6367 90.8712 15.2255 91.313 15.6917ZM86.2078 31.179C86.0361 30.7375 85.5942 30.4427 85.0297 30.2957C84.2935 30.0992 84.3426 29.5347 85.1032 29.4855C86.1117 29.4764 87.1198 29.5256 88.1226 29.6329C88.7645 29.6743 89.409 29.6246 90.037 29.4855C90.1105 28.8228 90.1592 27.6938 90.1592 27.0558C89.7422 27.0558 88.7602 27.1293 88.3923 27.1784C87.8068 27.2438 87.2353 27.4011 86.6988 27.6446C86.0305 27.4684 85.4045 27.1596 84.8579 26.7366C84.4161 26.3439 84.8088 26.0003 85.2015 26.0738C85.5942 26.1477 86.4779 26.1969 86.9441 26.2212C87.7057 26.2359 88.4677 26.2114 89.2268 26.1477C90.1592 26.0738 91.0677 26.0251 91.4112 25.976C91.9514 25.902 92.1475 26.1477 92.1475 26.3687C92.0864 26.6664 91.9875 26.955 91.8531 27.2276C91.6565 27.9147 91.436 28.8475 91.2882 29.412C91.7548 29.3385 92.1232 29.4855 92.0736 29.9765C92.0249 30.3936 91.6813 30.4675 91.2882 30.4427C90.0857 30.4675 89.0798 30.541 87.8525 30.6145C87.8346 30.7858 87.8263 30.958 87.8278 31.1302V32.6519C87.8278 33.0446 87.9504 33.2164 88.3431 33.2164C89.0798 33.2164 91.0921 32.8237 92.5155 32.3819C93.0803 32.2101 93.3256 32.8728 92.6137 33.2164C91.1164 33.9527 89.0059 34.6646 87.9996 34.7381C86.5518 34.8364 86.2078 33.9527 86.2078 32.4801L86.2078 31.179ZM97.6946 26.2948C98.5287 26.2212 99.1184 26.1721 99.5842 26.1477C100.124 26.123 100.247 26.3439 100.223 26.5648C100.198 26.7857 100.1 27.1541 100.051 27.4976C99.9277 28.6018 99.6581 31.2529 99.4863 32.7011C99.9277 32.6028 100.37 32.7254 100.345 33.1673C100.321 33.6335 100.124 33.8544 99.4619 33.8544C97.9398 33.8544 96.6882 33.8792 95.3383 33.9035C95.3136 34.198 95.0191 34.6646 94.6756 34.689C94.332 34.7133 94.0863 34.3206 94.0376 33.7561L93.6205 27.7921C93.53 27.5897 93.398 27.4087 93.233 27.2608C93.0681 27.1128 92.8738 27.0012 92.6629 26.9331C92.0249 26.7366 92.0001 26.1477 92.712 26.0986C93.5608 26.0964 94.4076 26.1786 95.2401 26.3439C96.0583 26.3909 96.8789 26.3745 97.6946 26.2948ZM95.2648 27.3502C95.2401 27.6938 95.2401 27.8412 95.2401 27.9395L95.3631 32.8972C96.3203 32.922 97.3262 32.8481 98.3082 32.7746L98.3569 27.2767C97.5715 27.252 96.1725 27.2767 95.2648 27.3502V27.3502ZM99.5842 13.8513C99.4809 14.4349 99.4234 15.0257 99.4124 15.6182V20.2572C99.6581 20.2324 99.9038 20.2324 100.124 20.208C100.64 20.151 101.122 19.927 101.499 19.57C102.055 19.5292 102.613 19.5373 103.168 19.5944C103.561 19.6435 104.1 19.8397 104.1 20.3798C104.1 20.8952 103.536 21.1896 102.849 21.1652C102.137 21.1409 100.836 21.1896 99.4124 21.2144V21.2635C99.4124 22.2698 99.4619 25.4115 98.4552 25.4115C98.0873 25.4115 97.8172 24.8713 97.8172 23.7667V15.0537C97.3019 14.4401 96.369 14.0722 95.8537 13.9C95.1174 13.6547 95.1913 13.0658 95.9519 13.0658C96.5656 13.0658 98.897 13.3355 99.5842 13.8513V13.8513Z" fill="#30373F"/>
</svg>
